<?xml version="1.0" encoding="UTF-8"?><svg id="Layer_1" xmlns="http://www.w3.org/2000/svg" viewBox="0 0 2022.56 1728"><path d="m792.25,700.48c-41.64-9.88-76.47-5.57-110.9,6.78-54.67,19.61-61.45,14.83-56.32-43.62,3.87-44.08-3.89-86.11-16.22-127.96-23.81-80.85-51.83-160.47-71.38-242.55-3.96-16.61-5.93-33.76-7.81-50.78-3.28-29.73-16.09-42.72-45.79-44.62-8.95-.57-18.02.16-26.9-.83-28.85-3.21-48.27-34.87-37.17-61.56,4.84-11.63,11.85-23.76,24.59-5.38,4.82,6.95,11.87,11.77,19.9,13.89,9.23,2.44,22.17,6.66,27.21-1.56,6.34-10.34-8.19-13.02-13.97-18.78-3.05-3.04-8.74-5.1-7.19-10.17,2.06-6.73,8.84-4.74,13.4-3.97,40.78,6.92,67.72,32.21,81.15,69.37,25.15,69.61,58.66,135.68,84.23,205.05,3.58,9.7,6.58,19.88,16.1,29.75-11.23-45.06-6.42-85,24.12-118.92,41.43-46.01,102.2-53.91,161.38-21.41,54.77,30.08,74.48,80.87,56.23,145.19-7.9,27.84-21.13,52.66-42.83,72.25-4.87,4.4-10.89,7.83-16.91,10.54-4.75,2.15-10.77,2.57-13.9-3.01-2.75-4.9,1.14-8.67,4.66-11.28,47.37-35.1,46.69-84.89,42.12-136.05-1.53-17.09-5.64-24.12-22.55-10.64-23.29,18.58-52.61,14.75-79.71,17.22-47.96,4.38-66.87,16.21-74.02,50.44-7.82,37.43,13.58,79.79,48.67,96.39,32.47,15.36,68.67,20.62,100.72,37.14,5.05,2.6,8.36,1.39,10.2-4.19,5.25-15.96,18.42-15.47,31.38-14.43,52.84,4.23,105.64,10.31,158.49-.45,6.27-1.28,13.92-1.96,17.98,5.48,3.78,6.93.23,13.39-3.28,18.87-12.37,19.25-30.37,32.57-50.3,44.68,36.89,3.32,66.69-27.67,60.73-62.09-5.25-30.32-7.36-60.96-4.97-91.52,1.19-15.26,1.37-34.82,28.2-27.38,10.8,3,9.41-10.42,10.31-15.89,6.65-40.44,32.68-64.11,67.26-80.94,77.49-37.71,178.47,21.45,183.32,107.5,1.44,25.44.55,50.76-6.93,75.42-2.43,8.01-4.52,14.9,8.89,12.87,82.12-12.44,139.33,27.79,184.45,90.04,28.2,38.91,49.05,81.79,57.86,129.85,5.34,29.1,1.86,56.87-11.93,82.53-6.29,11.69-6.04,15.73,7.16,19.83,57.08,17.76,100.86,54.03,136.48,100.93,5.37,7.08,10.01,14.93,13.66,23.01,2.26,5.02,4.56,14.04-4.57,13.84-16.22-.35-7.66,8.62-6.15,14.05,18.98,68.21,36.8,136.62,49.7,206.37,10.68,57.75-9.39,101.81-56.01,133.56-114.15,77.75-239.04,128.27-377.33,142.87-28.96,3.06-57.92,6.1-86.92,8.69-7.23.65-17.11,1.45-18.18-8.19-1.04-9.41,8.5-10.08,15.71-12.27,14.23-4.34,29.87-2.66,48.74-13.16-14.99-2.52-25.46-3.88-35.75-6.08-56.37-12.03-109.91-.32-163.83,16.14-64.91,19.82-130.76,36.61-196.48,53.66-12.17,3.16-14.23,5.72-8.84,17.35,32.07,69.19,95.92,100.4,169.57,82.2,46.17-11.41,88.31-32.6,129.33-55.49,123.31-68.82,256.02-93.14,395.45-84.47,105.42,6.56,208.5,27.8,310.25,55.6,3.74,1.02,9.45.31,10.76,6.82-7.12,5.33-13.84.98-20.59-.81-112.92-29.97-227.24-52.08-344.39-53.79-112.9-1.64-221.36,18.96-322.56,71.78-47.61,24.85-94.65,51.28-146.84,66.07-79.22,22.45-139.65-1.13-181.39-71.36-9.44-15.88-16.36-32.48-37.35-37.88-10.75-2.77-17-14.08-21.62-24.61-11.67-26.61-15.97-54.46-11.67-83.11,1.3-8.64.02-22.51,12.7-22.98,11.04-.4,11.37,12.61,13.66,20.59,8.82,30.82,16.01,62.09,27.23,92.23,4.09,10.98,7.94,17.73,22.43,13.76,110.72-30.31,221.66-59.84,338.81-91.29-12.52-3.19-19.02-4.92-25.55-6.49-6.62-1.59-15.69-3.47-14.72-10.86,1.27-9.64,11.36-6.72,18.35-6.77,21.61-.14,43.21-.05,70.2-.05-20.25-6.51-36.17-11.3-51.83-16.82-5.79-2.04-15.39-2.61-13.09-11.92,2.1-8.55,11.09-6.05,17.31-5.83,20.55.73,38.77,10.38,58.05,16.04,14.29,4.2,28.97,11.36,33.48-13.31,2.04-11.15,11.79-7.39,16.37-.08,14.6,23.32,31.32,11.43,48.19,4.01,19.38-8.52,28.86-22.34,26.25-44.09-3.39-28.27-20.76-49.02-36.76-70.58-3.11-4.19-9.57-8.48-9.23-12.24,2.54-27.65-19.92-27.1-36.29-33.64-57.5-22.99-75.47-61.49-57.27-120.81,14.71-47.93,19.71-97.87,29.69-146.78,2.66-13.06,1.08-36.96,14.88-35.54,16.6,1.71,13.21,25.04,13.41,39.77.48,35.46-6.92,69.55-21.03,102.27-12.04,27.93-4.2,39.08,26.47,37.04,32.8-2.19,62.01-15.21,89.8-32.12,11.93-7.26,10.16-15.93,5.77-26.65-11.55-28.26-24.31-56.1-23.4-87.93,1.68-58.76,42.46-98.15,104.6-99.89,47.06-1.32,56.45-10.54,59.42-58.34,6.21-99.8-83.77-223.88-177.98-245.84-17.11-3.99-34.15-3.37-51.23-1.44-14.78,1.67-24.92,9.05-33.68,22.34-25.04,38.04-54.05,73.74-60.5,120.94-.47,3.42-2.99,6.97,1.8,11.62,24.06-23.42,44.35-49.69,62.23-77.98,13.24-20.94,18.94-22.22,38.89-7.56,19.26,14.15,38.69,28.19,56.86,43.66,20.07,17.09,25.18,41.4,28.27,66.31,5.58,44.98-5.25,84.71-38.09,116.85-26.49,25.92-58.61,28.35-89.85,8.31-38.73-24.84-61.2-60.38-69.44-105.25-1.41-7.68.72-15.7-12.32-16.77-9.08-.75-9.65-12.38-10.22-20.23-.91-12.5-.24-25.11-.24-38.02-4.48,0-7.04-.78-8.72.11-58.03,30.8-105.67-6.33-128.35-49.12-2.1-3.96-3.96-8.05-5.88-12.1q-10.27-21.74-26.21-2.88c-14.93,17.61-35.43,24.04-57.05,28.09-29.32,5.49-59.08,8.56-87.91,16.93-12.01,3.49-17.84,8.25-14.94,21.99,14.84,70.48,7.52,141.3,1.92,212.02-10.45,131.88-41.05,260.73-58.89,391.49-3.81,27.93-1.59,56.68-2.27,85.04-.66,27.59-12.51,36.98-38.92,28.34-21.22-6.94-41.54-16.66-62.25-25.15-6.21-2.54-13.67-7.03-14.83,4.51-3.65,36.32-14.82,71.44-14.53,108.53.29,37.19,11.13,68.85,37.8,94.89,17.64,17.22,35.41,34.3,52.86,51.71,4.06,4.05,9.46,8.51,6.41,15.41-3.14,7.1-9.8,8.3-16.87,8.65-14.52.72-28.29-3-41.65-7.71-140.11-49.42-284.99-65.42-432.52-59.85-81.03,3.06-159.68,20.78-236.47,46.76-8.77,2.97-17.24,9.46-27.72,5.51.24-7.65,7.02-7.44,11.06-8.86,136.76-48.09,276.73-63.65,421.36-48.12,96.44,10.35,189.95,30.5,281.69,60.83,9.72,3.21,23.58,9.56,29.01.33,6.37-10.85-9.88-15.59-15.6-23.47-.43-.59-1.02-1.11-1.62-1.54-74.51-52.73-87.55-124.73-67.14-208.43,12.2-50.05,10.98-50.35-38.06-63.95-32.61-9.04-53.11,5.28-55.98,39.83-2.13,25.7,4.57,50.41,10.33,75.1,3.73,15.97,8.11,31.82,12.9,47.52,6.06,19.89,9.36,39.24-4.89,57.33-1.33,1.69-2.53,4.14-2.45,6.18,1.42,34.64-17.52,17.55-30.91,11.77-17.11-7.39-34.33-14.91-50.32-24.37-14.8-8.75-23.88-21.89-11.58-39.06,16.19-22.6,17.3-46.87,10.44-72.49-6.98-26.08-.4-50.34,10.32-73.81,12.21-26.72,32.56-43.17,62.76-42.52,16.58.36,32.47-2.15,48.65-4.28,20.65-2.72,38.09,2.7,50.57,21.18,13.2,19.56,37.02,20.87,56.24,29.48,49.86,22.33,53,19.35,52.21-35.41-1-69.93,14.27-137.92,27.02-206.03,21.73-116.08,36.75-232.9,41.86-350.86,1.45-33.49-2.27-67.01-7.19-100.36-2.55-17.32-8.77-16.66-19.55-7.66-21.75,18.18-41.32,38.94-67.47,55.43,12.9,9.67,25.29,17.52,35.99,27.23,33.88,30.77,37.03,55.94,11.72,92.71-7.49,10.89-9.89,20.71-3.96,33.2,6.66,14.05-1.26,19.12-14.54,19.13-12.37,0-23.29-5.24-34.13-10.12-34.14-15.35-66.13-34.67-97.91-54.29-10.45-6.45-18.5-11.87-18.03,7.7.49,20.1-12.61,34.53-23.43,49.68-19.92,27.88-41.65,54.6-57.19,87.94,21.12-7.8,18.58,6.13,16.54,16.26-7.49,37.27-15.57,74.44-24.3,111.44-19.17,81.31-38.39,162.6-47.21,245.87-1.16,10.95-3.53,15.44-16.66,12.8-23.14-4.66-45.75-13.42-70.34-10.11-11.74,1.58-14.45-7.49-14.73-17.7-.49-18.36,5.14-35.47,10.85-52.35,24.64-72.9,55.21-143.4,87.24-213.3,4.21-9.2,11.06-17.65,10.66-29.24-11.41-2.59-21.66,4.26-33.2,1.63-41.86-9.55-66.93-45.02-55.48-87.48,21.24-78.75,65.18-141.6,137.31-183.11,36.58-21.05,77.72-19.16,117.2-25.85,17.54-2.98,34.76-6.94,55.58-19.44Zm615.86,669.11c30.65,5.72,57.14-1.58,81.92-19.44,46-33.16,89.87-69.49,142.11-93.41,32.96-15.1,33.27-16.28,21.05-50.86-15.64-44.27-33.17-87.87-48.87-132.12-22.48-63.36,13.74-147.98,108.12-133.72-25.47-55.59-68.82-80.52-128.04-81.32-28.99-.39-32.11,1.87-38.1,31.06-9.81,47.81-5.97,96.83-13.21,144.84-2.45,16.26-3.85,35.56-22.77,40.04-17.68,4.19-25.8-12.77-32.8-25.47-6.52-11.84-11.87-11.84-22.27-4.91-28.37,18.9-59.09,32.01-93.99,32.41-39.9.46-48.8-12.73-33.43-49.3,18.08-43.06,23.8-85.89,15.33-119.77-1.23,4.2-2.25,6.91-2.81,9.7-11.43,56.96-16.53,115.26-36.61,170.41-10.65,29.27-4.12,55.66,20.15,74.51,27.04,21,55.87,42.56,93.53,26.68,30.12-12.7,61.64-17.49,93.67-20.35,7.01-.62,17.46-3.18,19.83,5.47,2.98,10.89-8.76,12.16-15.75,14.94-30.91,12.27-63.18,17.53-96.4,17.12-6.81-.08-13.68-.51-17.87,6.46-4.74,7.88,1.84,12.47,5.51,17.63,8.23,11.56,17.41,22.48,25.16,34.34,27.8,42.55,21.1,73.11-21.29,100.06-.95.6-1.1,2.44-2.18,5Zm-132.17,94.24c36.22,1.56,66.9-5.19,97.87-8.86,132.77-15.71,251.89-66.67,360.88-142.02,31.77-21.97,53.94-53.58,50-94.68-8.07-84.26-32.64-165.03-56.14-245.92-3.49-12-11.29-18.35-22.88-22.08-41.4-13.35-86.1,15.6-96.48,62.83-7.48,34.01,4.76,64.77,16.08,95.55,13.12,35.69,27.24,71.01,40.18,106.76,5.69,15.72,6.72,32.08-12.05,40.17-60.39,26.02-110.71,67.54-163.7,104.94-23.7,16.73-50.76,25.85-78.32,19.45-32.17-7.47-58.2,7.33-86.38,15.13-3.3.91-12.73,1.12-7.85,8.95,8.83,14.17-3.38,13.36-10.17,14.08-19.23,2.03-38.59,2.77-64.08,4.42,9.45,1.32,13.08,1.48,16.51,2.37,18.17,4.72,37.41.97,55.42,7.28,5.99,2.1,11.74,4.24,12.14,11.29.45,7.94-6.53,9.18-12.13,10.72-11.37,3.12-22.88,5.71-38.89,9.64ZM728.81,502.32c12.51,19.1,22.37,32.16,30.12,46.37,24.25,44.5,7.51,101.65-36.15,126.52-11.53,6.57-21.7,9.17-24.51-8.05-3.96-24.27-15.83-44.97-28.7-65.06-13.44-20.98-17.16-42.85-8.4-66.05,14.02-37.16,8.3-72.76-4.37-109.12-29.72-85.29-70.85-165.89-101.63-250.76-9.47-26.11-29.22-45.6-58.49-54.19,1.99,9.51,12.7,16.54,4.48,25.58-7.06,7.76-16.94,8.74-26.95,7.03-9.63-1.65-18.45-4.98-26.96-10.21-5.69-3.51-8.82-16.05-17.02-9.81-8.31,6.32-6.16,17.37-3.24,27.13,5.08,16.97,16.18,26.52,33.76,27.91,10.41.82,20.97.01,31.36.99,23.73,2.23,41.82,17.71,43.85,40.72,6.38,72.1,32.19,139.16,51.91,207.84,23.53,81.96,59.07,161.74,43.79,250.84-3.25,18.93,5.91,24.46,24.71,16.91,46.27-18.57,93.33-25.6,142.42-14.31,8.76,2.01,15.83-1.76,23.11-6.02,26.76-15.61,45.33-41.17,71.12-57.92,5.12-3.33,6.88-8.63,4.21-13.68-13.7-25.96-21.86-55.94-52.9-69.07-36.23-15.32-75.17-22.68-115.53-43.62Zm-65.21,268.6c10.37-3.25,16.58,3.46,23.27,7.32,31.03,17.9,61.68,36.46,92.66,54.46,20.03,11.64,40.72,22.09,62.97,28.78,9.2,2.76,17.22,2.71,11.92-11.45-5.9-15.75.72-28.67,10.07-41.34,18.41-24.94,18.42-34.51,1.47-60.21-10.07-15.27-24-26.25-39.8-35.36-11.18-6.44-21.04-7.7-33.54-1.92-26.53,12.27-54.81,17.92-84.19,20.59-108.09,9.81-200.93,97.06-219.37,204.51-5.22,30.42,10.15,57.87,38.15,68.13,28.35,10.39,50.87.12,67.41-30.36,18.18-33.49,38.05-65.91,60.69-96.63,10.62-14.4,21.56-28.78,30.25-44.34,12.51-22.41,8.12-37.04-12.75-51.44-3.57-2.46-8.49-3.56-9.23-10.74Zm674.23-315.31c0-34.84-6.38-44.64-29.16-42.82-37.28,2.99-68.26-8.85-97.48-31.05-25.72-19.54-49.63-14.68-66.18,13.22-26.14,44.07-33.63,95.18-50.91,142.64-.48,1.32-.56,3.11-.07,4.4,14.47,37.87,29.11,75.88,68.65,95.48,34.94,17.31,75.33,1.46,89.25-34.34,8.84-22.72,20.95-44.07,41.71-56.8,37.33-22.89,38.95-60.33,44.18-90.71Zm117.63,261.68c-.34-30.77-1.51-59.07-23.91-79.33-18.16-16.43-38.55-30.41-57.99-45.42-11.1-8.57-19.42-7.4-27.15,5.47-18.1,30.11-39.35,58.02-65.14,82.02-9.86,9.17-9.64,19.94-7.73,30.82,7.85,44.71,29.46,80.72,68.86,104.89,26.91,16.51,52.28,14.54,75.55-7.17,27.14-25.33,40.23-56.72,37.52-91.28Zm-826.62,245.45c-25.92,23.75-44.44,45.16-55.97,72.56-23.4,55.63-48.42,110.58-71.48,166.34-12.79,30.93-23.8,62.68-30.94,95.54-3.15,14.52-1.77,25.24,17.91,23.27,15.62-1.56,30.87.42,46,6.51,12.02,4.84,21.5,4.07,23.17-14.75,2.88-32.55,8.41-65.03,15.23-97.03,17.52-82.18,36.35-164.08,56.08-252.44Zm71.08-500.88c-14.79-80.27,9.51-110.61,87.69-114.21,2.98-.14,5.97-.36,8.95-.32,24.49.36,47.46-3.37,65.91-21.79,8.84-8.83,16.4-4.79,21.33,4.78,5.18,10.08,6.92,21.18,7.13,32.47.46,24.47,1.47,48.96-5.31,76.77,31.01-49.49,21.15-113.4-19.81-146.46-52.87-42.67-119.58-42.06-164.68,1.52-43.78,42.3-45.23,110.45-1.19,167.24Zm636.56,49.71c13.66-20.08,20.73-53.81,18.75-84.44-4.97-76.92-80.36-133.85-152.67-113.19-42.34,12.1-74.96,36.29-83.1,84.13-2.01,11.77-2.49,29.72-24.72,20.25-7.16-3.05-10.38,4.41-11.6,10.37-5.97,29.15-.06,57.54,2.03,90.11,11.47-10.59,11.7-20.1,14.45-28.35,9.9-29.68,17.08-60.31,31.1-88.54,22.29-44.87,51.56-52.51,91.76-23.26,25.65,18.67,52.73,29.58,85.54,25.52,23.18-2.87,34.98,8.22,37.2,31.48,2.44,25.54-.99,50.57-8.73,75.92Zm-696.29,794.27c-21.63-2.68-36.33,5.61-47.9,20.76-20.39,26.69-25.29,57.48-18.73,89.09,5.31,25.56,4.15,48.38-10.54,70.42-8.67,13-5.12,24.84,8.26,32,17.03,9.13,34.8,16.89,52.39,24.95,4.82,2.21,10.61,3.76,13.16-3.12,7.03-19,20.8-36.21,11.02-59.16-6.35-14.9-9.53-31.27-13.09-47.21-9.5-42.57-23.45-85.41,5.43-127.73Zm38.37-853.92c-4.83,17.78,4.89,34.02.05,50.95-4.89,17.09-8.71,34.55-12.01,52.03-2.41,12.75.59,24.63,7.03,36.38,11.72,21.42,26.99,41.35,31.46,66.15,2.75,15.29,9.63,13.44,19.68,6.38,35.3-24.79,47.68-72.75,26.62-111.05-20.02-36.42-52.09-64.25-72.82-100.83Zm881.68,379.45c-75.38-7.07-124.16,39.09-116.53,107.79,2.4,21.6,11.59,41.48,19.65,61.48,1.87,4.65,2.54,11.88,8.09,12.57,7.09.88,9.07-6.72,11.57-11.76,12.01-24.19,11.89-50.31,11.79-76.46-.13-32.85,12.34-58.12,44.86-69.82,11.21-4.03,15.32-12.56,20.58-23.79Zm-642.19-298.75c-14.77,3.79-35.73-10.29-43.26,6.18-8.68,18.99,13.84,27.07,25.98,36.38,47.4,36.37,126.56,20.21,157.18-31.28,2.15-3.62,6.32-7.42,3.44-11.98-2.23-3.54-6.63-2.57-10.23-1.6-44.19,11.89-88.78,5.52-133.12,2.29Zm624.58,331.52c-35.16,13.67-39.36,40.68-39.96,68.6-.67,31.49-1.4,62.29-21.73,89.14-9.77,12.9,3.78,21.71,9.22,31.31,3.95,6.98,9.48,14.81,19.32,11.51,9.82-3.29,11.38-12.98,12.95-21.78,10.42-58.29,4.65-118.13,20.19-178.78Zm-689.41,519.42c-8.12,61.17,4.11,99.22,33.08,109.85-8.99-31.9-17.78-63.22-26.7-94.52-.95-3.32-2.64-6.43-6.38-15.34Zm407.04-689.15c7.42-31.06,8.99-57.06,22.83-86.09-35.34,22.91-41.61,47.31-22.83,86.09Zm46.11-144.81c-27.96,17.58-41.61,36.88-44.12,60.19,19.92-17.42,34.66-36.99,44.12-60.19Zm-357.23,55.89c-18.65-2.04-34.03-10.19-51.72-17.86q11.95,33.25,51.72,17.86Zm616.17,241.9c21.48,1.86,39.65,3.43,60.29,5.21-32.71-18.19-46.08-19.66-60.29-5.21Zm-60.41,333.04c-23.28.43-45.81,3.86-67.04,13.21,23.51,1.13,45.74-3.98,67.04-13.21Z"/></svg>