<?xml version="1.0" encoding="utf-8"?>
<!-- Generator: Adobe Illustrator 27.5.0, SVG Export Plug-In . SVG Version: 6.00 Build 0)  -->
<svg version="1.1" id="Layer_1" xmlns="http://www.w3.org/2000/svg" xmlns:xlink="http://www.w3.org/1999/xlink" x="0px" y="0px"
	 viewBox="0 0 432 432" style="enable-background:new 0 0 432 432;" xml:space="preserve">
<g>
	<path d="M350.2,100.2c-31.7,0-57.5-25.8-57.5-57.5V23.4H139.5v19.1c0,31.7-25.8,57.5-57.5,57.5H62.7v153.3
		c0,84.1,130.6,145,145.5,151.6l7.8,3.5l7.8-3.5c14.9-6.7,145.5-67.5,145.5-151.6V100.2H350.2z M331.1,253.4
		c0,47-76.8,94.3-115,112.9c-36.8-18.2-115-66.3-115-112.9V136.5c37.5-7.6,67.1-37.2,74.7-74.7h80.5c7.6,37.5,37.3,67.1,74.7,74.7
		V253.4z"/>
	<path d="M216.1,165.4c-18.2-12.6-45-10.3-61,5.7c-18.6,18.7-18.6,49.1,0,67.8l60.9,60.9l61-60.9c18.6-18.7,18.6-49.1,0-67.8
		C261.1,155,234.3,152.8,216.1,165.4L216.1,165.4z M250,211.6l-33.9,33.9l-33.9-33.9c-3.8-3.8-3.8-9.8,0-13.6
		c2.5-2.5,5.3-2.8,6.8-2.8c1.5,0,4.4,0.3,6.8,2.8l20.3,20.4l20.4-20.4c2.5-2.5,5.3-2.8,6.8-2.8c1.5,0,4.4,0.4,6.7,2.8
		C253.7,201.8,253.7,207.9,250,211.6L250,211.6z"/>
</g>
</svg>
