<?xml version="1.0" encoding="UTF-8"?>
<svg width="700pt" height="700pt" version="1.1" viewBox="0 0 700 700" xmlns="http://www.w3.org/2000/svg">
 <g>
  <path d="m513.33 138.88c-38.594 0-70-31.406-70-70v-23.332h-186.66v23.332c0 38.594-31.406 70-70 70h-23.336v186.67c0 102.39 158.99 176.49 177.12 184.64l9.543 4.2695 9.543-4.2695c18.129-8.1211 177.12-82.25 177.12-184.64v-186.67zm-23.332 186.67c0 57.168-93.496 114.78-140 137.55-44.777-22.051-140-80.688-140-137.55v-142.33c45.641-9.2852 81.691-45.336 90.977-90.977h98.023c9.3086 45.613 45.359 81.664 91 90.977z"/>
  <path d="m350 218.26c-22.191-15.309-54.785-12.625-74.27 6.8828-22.727 22.75-22.727 59.758 0.023437 82.508l74.246 74.223 74.27-74.246c22.727-22.75 22.727-59.758 0-82.484-19.508-19.484-52.055-22.168-74.27-6.8828zm41.277 56.371-41.277 41.254-41.254-41.254c-4.5508-4.5508-4.5508-11.945 0-16.496 2.9648-2.9648 6.4414-3.4062 8.2617-3.4062 1.7969 0 5.2734 0.44141 8.2617 3.4062l24.73 24.758 24.758-24.758c2.9648-2.9648 6.4414-3.4062 8.2617-3.4062 1.7969 0 5.2734 0.46484 8.2383 3.4062 4.5234 4.5742 4.5234 11.945 0.019532 16.496z"/>
 </g>
</svg>
