<?xml version="1.0" encoding="UTF-8"?>
<svg width="700pt" height="700pt" version="1.1" viewBox="0 0 700 700" xmlns="http://www.w3.org/2000/svg">
 <g>
  <path d="m498.4 316.54v-50.145c0-21.109-17.172-38.285-38.285-38.285h-248.65c-21.129 0-38.301 17.172-38.301 38.285v172.62c0 21.109 17.172 38.285 38.301 38.285h248.66c21.109 0 38.285-17.172 38.285-38.285v-50.129c16.309-4.0234 28.441-18.633 28.441-36.164-0.003906-17.547-12.137-32.156-28.445-36.18zm-18.055-1.1875h-65.062c-20.652 0-37.352 16.715-37.352 37.367 0 20.637 16.699 37.352 37.352 37.352h65.062v48.941c0 11.133-9.0781 20.211-20.211 20.211h-248.67c-11.148 0-20.227-9.0781-20.227-20.211l-0.003906-172.62c0-11.133 9.0781-20.195 20.227-20.195h248.66c11.133 0 20.211 9.0625 20.211 20.195l0.003906 48.957zm-44.289 37.352c0 9.3008-7.5352 16.832-16.832 16.832-9.3008 0-16.832-7.5352-16.832-16.832 0-9.2812 7.5352-16.816 16.832-16.816s16.832 7.5312 16.832 16.816z"/>
  <path d="m266.22 267.39h-38.23c-4.9727 0-9.0273 4.0547-9.0273 9.043 0 4.9883 4.0547 9.0273 9.0273 9.0273h38.25c5.0078 0 9.043-4.0391 9.043-9.0273 0-4.9844-4.0547-9.043-9.0625-9.043z"/>
  <path d="m354.9 267.39h-38.234c-5.0078 0-9.043 4.0547-9.043 9.043 0 4.9883 4.0391 9.0273 9.043 9.0273h38.234c4.9883 0 9.0273-4.0391 9.0273-9.0273 0.003906-4.9844-4.0352-9.043-9.0273-9.043z"/>
  <path d="m443.59 267.39h-38.25c-4.9883 0-9.043 4.0547-9.043 9.043 0 4.9883 4.0547 9.0273 9.043 9.0273h38.25c4.9727 0 9.0273-4.0391 9.0273-9.0273 0.003907-4.9844-4.0547-9.043-9.0273-9.043z"/>
  <path d="m266.22 419.95h-38.23c-4.9727 0-9.0273 4.0391-9.0273 9.0117 0 5.0078 4.0547 9.043 9.0273 9.043h38.25c5.0078 0 9.043-4.0391 9.043-9.043 0-4.9727-4.0547-9.0117-9.0625-9.0117z"/>
  <path d="m354.9 419.95h-38.234c-5.0078 0-9.043 4.0391-9.043 9.0117 0 5.0078 4.0391 9.043 9.043 9.043h38.234c4.9883 0 9.0273-4.0391 9.0273-9.043 0.003906-4.9727-4.0352-9.0117-9.0273-9.0117z"/>
  <path d="m405.34 438.02h38.25c4.9727 0 9.0273-4.0391 9.0273-9.043 0-4.9727-4.0547-9.0117-9.0273-9.0117h-38.25c-4.9883 0-9.043 4.0391-9.043 9.0117-0.003906 4.9844 4.0508 9.043 9.043 9.043z"/>
  <path d="m419.22 195.66c31.191 0 56.477-25.285 56.477-56.477s-25.285-56.477-56.477-56.477-56.477 25.285-56.477 56.477c0.003906 31.191 25.285 56.477 56.477 56.477zm-19.363-37.875c1.2539-3.0898 4.7695-4.582 7.8555-3.3086 8.7227 3.5469 15.578 3.0898 19.125 1.4609 1.7305-0.79688 2.7812-1.8828 3.2422-3.3086 0.81641-2.4258-1.5273-4.6328-8.3477-7.957-1.5273-0.74609-2.4102-1.0859-3.4102-1.4922-6.5859-2.6133-21.957-8.7578-17.715-22.266 1.3242-4.2266 4.0898-7.5 8.043-9.5039 1.4414-0.73047 2.9883-1.1875 4.5469-1.5625v-5.6367c0-3.3242 2.6992-6.0078 6.0234-6.0078s6.0234 2.6797 6.0234 6.0078v5.4141c4.5977 0.66016 8.1953 1.8164 8.9414 2.0859 3.1562 1.0859 4.8008 4.5156 3.7344 7.6523-1.0703 3.1406-4.5312 4.8008-7.6367 3.7344-3.5117-1.2031-12.117-3.0195-16.223-0.91797-1.0195 0.50781-1.6133 1.2031-1.9531 2.3438-0.89844 2.832 7.2109 6.0742 10.656 7.4336 1.375 0.55859 2.5469 1.0352 3.3789 1.4414 5.5312 2.6992 19.836 9.6211 15.391 23.012-1.543 4.6172-4.8867 8.2148-9.6562 10.438-2.0195 0.93359-4.2773 1.4922-6.6367 1.8672v5.4141c0 3.3438-2.6992 6.0234-6.0234 6.0234-3.3242 0-6.0234-2.6797-6.0234-6.0234l0.003906-5.6719c-3.2734-0.57812-6.6367-1.4414-10.012-2.8164-3.0898-1.2539-4.582-4.7852-3.3281-7.8555z"/>
  <path d="m312.43 210.05c-1.4766-1.7461-4.207-3.5469-8.8242-5.7852-1.7305-0.84766-2.7305-1.2383-3.9219-1.7148-7.2461-2.9023-24.215-9.6562-19.602-24.266 1.4258-4.5977 4.4453-8.1445 8.7227-10.301 1.7656-0.89844 3.6641-1.4258 5.6016-1.7969v-7.1133c0-3.3242 2.6992-6.0234 6.0234-6.0234 3.3242 0 6.0234 2.6992 6.0234 6.0234v6.8398c5.4648 0.71094 9.8438 2.1367 10.707 2.4453 3.1562 1.0859 4.8008 4.5312 3.7344 7.6523-1.0703 3.1562-4.5312 4.8359-7.6523 3.75-4.8359-1.6641-14.305-3.4102-19.039-1-1.3594 0.66016-2.1719 1.6445-2.6289 3.1406-1.0859 3.4609 5.3945 6.6172 12.574 9.4688 1.543 0.60938 2.8516 1.1523 3.8008 1.6133 5.293 2.5625 15.797 7.8047 17.582 17.09h37.875c0.66016-3.6836 1.1367-7.4141 1.1367-11.27 0-35.398-28.695-64.113-64.129-64.113-35.414 0-64.113 28.711-64.113 64.113 0 3.8672 0.49219 7.5859 1.1367 11.27l74.992-0.007813z"/>
 </g>
</svg>
