<?xml version="1.0" encoding="utf-8"?>
<!-- Generator: Adobe Illustrator 27.5.0, SVG Export Plug-In . SVG Version: 6.00 Build 0)  -->
<svg version="1.1" id="Layer_1" xmlns="http://www.w3.org/2000/svg" xmlns:xlink="http://www.w3.org/1999/xlink" x="0px" y="0px"
	 viewBox="0 0 432 432" style="enable-background:new 0 0 432 432;" xml:space="preserve">
<g>
	<path d="M365.9,250v-50.1c0-21.1-17.2-38.3-38.3-38.3H79c-21.1,0-38.3,17.2-38.3,38.3v172.6c0,21.1,17.2,38.3,38.3,38.3h248.7
		c21.1,0,38.3-17.2,38.3-38.3v-50.1c16.3-4,28.4-18.6,28.4-36.2C394.3,268.7,382.2,254.1,365.9,250L365.9,250z M347.8,248.9h-65.1
		c-20.7,0-37.4,16.7-37.4,37.4c0,20.6,16.7,37.4,37.4,37.4h65.1v48.8c0,11.1-9.1,20.2-20.2,20.2H79c-11.1,0-20.2-9.1-20.2-20.2
		V199.9c0-11.1,9.1-20.2,20.2-20.2h248.7c11.1,0,20.2,9.1,20.2,20.2L347.8,248.9L347.8,248.9z M303.6,286.2
		c0,9.3-7.5,16.8-16.8,16.8s-16.8-7.5-16.8-16.8s7.5-16.8,16.8-16.8S303.6,276.9,303.6,286.2z"/>
	<path d="M133.7,200.9H95.5c-5,0-9,4.1-9,9s4.1,9,9,9h38.2c5,0,9-4,9-9C142.8,204.9,138.7,200.9,133.7,200.9L133.7,200.9z"/>
	<path d="M222.4,200.9h-38.2c-5,0-9,4.1-9,9s4,9,9,9h38.2c5,0,9-4,9-9S227.4,200.9,222.4,200.9z"/>
	<path d="M311.1,200.9h-38.2c-5,0-9,4.1-9,9s4.1,9,9,9h38.2c5,0,9-4,9-9S316.1,200.9,311.1,200.9z"/>
	<path d="M133.7,353.5H95.5c-5,0-9,4-9,9s4.1,9,9,9h38.2c5,0,9-4,9-9C142.8,357.5,138.7,353.5,133.7,353.5L133.7,353.5z"/>
	<path d="M222.4,353.5h-38.2c-5,0-9,4-9,9s4,9,9,9h38.2c5,0,9-4,9-9S227.4,353.5,222.4,353.5z"/>
	<path d="M272.8,371.5H311c5,0,9-4,9-9s-4.1-9-9-9h-38.2c-5,0-9,4-9,9S267.8,371.5,272.8,371.5z"/>
	<path d="M286.7,129.2c31.2,0,56.5-25.3,56.5-56.5s-25.3-56.5-56.5-56.5s-56.5,25.3-56.5,56.5S255.5,129.2,286.7,129.2z M267.4,91.3
		c1.3-3.1,4.8-4.6,7.9-3.3c8.7,3.5,15.6,3.1,19.1,1.5c1.7-0.8,2.8-1.9,3.2-3.3c0.8-2.4-1.5-4.6-8.3-8c-1.5-0.7-2.4-1.1-3.4-1.5
		c-6.6-2.6-22-8.8-17.7-22.3c1.3-4.2,4.1-7.5,8-9.5c1.4-0.7,3-1.2,4.5-1.6v-5.6c0-3.3,2.7-6,6-6s6,2.7,6,6v5.4
		c4.6,0.7,8.2,1.8,8.9,2.1c3.2,1.1,4.8,4.5,3.7,7.7c-1.1,3.1-4.5,4.8-7.6,3.7c-3.5-1.2-12.1-3-16.2-0.9c-1,0.5-1.6,1.2-2,2.3
		c-0.9,2.8,7.2,6.1,10.7,7.4c1.4,0.6,2.5,1,3.4,1.4c5.5,2.7,19.8,9.6,15.4,23c-1.5,4.6-4.9,8.2-9.7,10.4c-2,0.9-4.3,1.5-6.6,1.9v5.4
		c0,3.3-2.7,6-6,6s-6-2.7-6-6v-5.7c-3.3-0.6-6.6-1.4-10-2.8C267.6,97.9,266.1,94.4,267.4,91.3L267.4,91.3z"/>
	<path d="M179.9,143.6c-1.5-1.7-4.2-3.5-8.8-5.8c-1.7-0.8-2.7-1.2-3.9-1.7c-7.2-2.9-24.2-9.7-19.6-24.3c1.4-4.6,4.4-8.1,8.7-10.3
		c1.8-0.9,3.7-1.4,5.6-1.8v-7.1c0-3.3,2.7-6,6-6s6,2.7,6,6v6.8c5.5,0.7,9.8,2.1,10.7,2.4c3.2,1.1,4.8,4.5,3.7,7.7s-4.5,4.8-7.7,3.8
		c-4.8-1.7-14.3-3.4-19-1c-1.4,0.7-2.2,1.6-2.6,3.1c-1.1,3.5,5.4,6.6,12.6,9.5c1.5,0.6,2.9,1.2,3.8,1.6c5.3,2.6,15.8,7.8,17.6,17.1
		h37.9c0.7-3.7,1.1-7.4,1.1-11.3c0-35.4-28.7-64.1-64.1-64.1s-64.1,28.7-64.1,64.1c0,3.9,0.5,7.6,1.1,11.3H179.9L179.9,143.6z"/>
</g>
</svg>
