<?xml version="1.0" encoding="utf-8"?>
<!-- Generator: Adobe Illustrator 27.5.0, SVG Export Plug-In . SVG Version: 6.00 Build 0)  -->
<svg version="1.1" id="Layer_1" xmlns="http://www.w3.org/2000/svg" xmlns:xlink="http://www.w3.org/1999/xlink" x="0px" y="0px"
	 viewBox="0 0 432 432" style="enable-background:new 0 0 432 432;" xml:space="preserve">
<path d="M358.1,92.7h-77.2v-3.5c0-15.5-12.6-28.1-28.1-28.1h-73.3c-15.5,0-28.1,12.6-28.1,28.1v3.5H73.9c-15.5,0-28.1,12.6-28.1,28
	v222.1c0,15.5,12.6,28.1,28.1,28.1h284.2c15.5,0,28-12.6,28-28.1V120.7C386.2,105.2,373.5,92.7,358.1,92.7L358.1,92.7z M170,89.2
	c0-5.2,4.2-9.4,9.4-9.4h73.3c5.2,0,9.4,4.2,9.4,9.4v3.5H170V89.2z M73.9,111.4h284.2c5.2,0,9.4,4.2,9.4,9.4v48.9l-122.2,49.6v-2.1
	c0-15.5-12.6-28.1-28.1-28.1h-2.4c-15.5,0-28.1,12.6-28.1,28.1v2.1L64.6,169.6v-48.9C64.5,115.6,68.8,111.4,73.9,111.4L73.9,111.4z
	 M226.5,217.1v38.7c0,5.2-4.2,9.4-9.4,9.4h-2.4c-5.2,0-9.4-4.2-9.4-9.4v-38.7c0-5.2,4.2-9.4,9.4-9.4h2.4
	C222.3,207.7,226.5,211.9,226.5,217.1z M358.1,352.2H73.9c-5.2,0-9.4-4.2-9.4-9.4V189.7l122.1,49.6v16.3c0,15.5,12.6,28.1,28.1,28.1
	h2.4c15.5,0,28.1-12.6,28.1-28.1v-16.3l122.2-49.6v153.1C367.5,348,363.2,352.2,358.1,352.2L358.1,352.2z"/>
</svg>
