<?xml version="1.0" encoding="UTF-8"?>
<svg width="700pt" height="700pt" version="1.1" viewBox="0 0 700 700" xmlns="http://www.w3.org/2000/svg">
 <path d="m525.35 127.77h-95.391l-0.003907-4.2852c0-19.129-15.559-34.684-34.684-34.684h-90.512c-19.145 0-34.684 15.574-34.684 34.684v4.2891l-95.395-0.003906c-19.125 0-34.684 15.543-34.684 34.668v274.09c0 19.145 15.559 34.684 34.684 34.684h350.67c19.109 0 34.648-15.559 34.648-34.684v-274.09c0-19.125-15.559-34.668-34.648-34.668zm-232.16-4.2852c0-6.3867 5.1641-11.566 11.551-11.566h90.512c6.3867 0 11.586 5.1797 11.586 11.566v4.2891h-113.64zm-118.51 27.387h350.67c6.3516 0 11.551 5.1992 11.551 11.566v60.254l-150.76 61.215v-2.5547c0-19.145-15.559-34.684-34.684-34.684h-2.8711c-19.145 0-34.684 15.559-34.684 34.684v2.5547l-150.73-61.215-0.003906-60.254c-0.035156-6.3672 5.125-11.566 11.512-11.566zm188.34 130.48v47.652c0 6.3867-5.1992 11.551-11.586 11.551h-2.8711c-6.3867 0-11.551-5.1641-11.551-11.551v-47.652c0-6.3867 5.1641-11.566 11.551-11.566h2.8711c6.3906 0 11.586 5.1797 11.586 11.566zm162.33 166.76h-350.67c-6.3867 0-11.551-5.1992-11.551-11.586l0.003907-188.86 150.73 61.199v20.125c0 19.145 15.559 34.684 34.684 34.684h2.8711c19.145 0 34.684-15.559 34.684-34.684v-20.125l150.76-61.199v188.86c0.035157 6.4062-5.1602 11.586-11.512 11.586z"/>
</svg>
