<svg version="1.1" id="Layer_1" xmlns="http://www.w3.org/2000/svg" x="0" y="0" viewBox="0 0 432 432" style="enable-background:new 0 0 432 432" xml:space="preserve"><path d="M216 262.1c-11.7 0-23.4-1.7-34.7-4.8L84 228.2v66.4c0 12.2 7.8 22.6 19.5 26.1l42.6 12.6c46.9 13.9 96.4 13.9 143.3 0l42.6-12.6c11.7-3.5 19.5-13.9 19.5-26.1v-67.3l-100.8 30c-11.3 3.4-23 4.8-34.7 4.8z"/><path d="M413.6 154.3 242 103.5c-16.9-5.2-35.2-5.2-52.5 0L18.4 154.3c-11.7 3.5-11.7 20.4 0 23.9L189.9 229c16.9 5.2 35.2 5.2 52.5 0l146.8-43.4v38.7c-3 1.7-5.2 4.8-5.2 8.3V243c0 3.9 2.2 7.4 5.6 8.7l-9.1 21.3c-1.3 3 .4 6.1 3.9 6.5l9.6.9h5.6l9.6-.9c3-.4 4.8-3.5 3.9-6.5l-9.1-21.3c3.5-1.7 5.6-4.8 5.6-8.7v-10.4c0-3.5-2.2-6.5-5.2-8.3v-43l9.6-3c11.3-4 11.3-20.5-.4-24z"/></svg>