<svg version="1.1" id="Layer_1" xmlns="http://www.w3.org/2000/svg" x="0" y="0" viewBox="0 0 432 432" style="enable-background:new 0 0 432 432" xml:space="preserve"><path d="M350.2 100.2c-31.7 0-57.5-25.8-57.5-57.5V23.4H139.5v19.1c0 31.7-25.8 57.5-57.5 57.5H62.7v153.3c0 84.1 130.6 145 145.5 151.6l7.8 3.5 7.8-3.5c14.9-6.7 145.5-67.5 145.5-151.6V100.2h-19.1zm-19.1 153.2c0 47-76.8 94.3-115 112.9-36.8-18.2-115-66.3-115-112.9V136.5c37.5-7.6 67.1-37.2 74.7-74.7h80.5c7.6 37.5 37.3 67.1 74.7 74.7v116.9z"/><path d="M216.1 165.4c-18.2-12.6-45-10.3-61 5.7-18.6 18.7-18.6 49.1 0 67.8l60.9 60.9 61-60.9c18.6-18.7 18.6-49.1 0-67.8-15.9-16.1-42.7-18.3-60.9-5.7zm33.9 46.2-33.9 33.9-33.9-33.9c-3.8-3.8-3.8-9.8 0-13.6 2.5-2.5 5.3-2.8 6.8-2.8s4.4.3 6.8 2.8l20.3 20.4 20.4-20.4c2.5-2.5 5.3-2.8 6.8-2.8s4.4.4 6.7 2.8c3.7 3.8 3.7 9.9 0 13.6z"/></svg>