<svg version="1.1" id="Layer_1" xmlns="http://www.w3.org/2000/svg" x="0" y="0" viewBox="0 0 432 432" style="enable-background:new 0 0 432 432" xml:space="preserve"><path d="M365.9 250v-50.1c0-21.1-17.2-38.3-38.3-38.3H79c-21.1 0-38.3 17.2-38.3 38.3v172.6c0 21.1 17.2 38.3 38.3 38.3h248.7c21.1 0 38.3-17.2 38.3-38.3v-50.1c16.3-4 28.4-18.6 28.4-36.2-.1-17.5-12.2-32.1-28.5-36.2zm-18.1-1.1h-65.1c-20.7 0-37.4 16.7-37.4 37.4 0 20.6 16.7 37.4 37.4 37.4h65.1v48.8c0 11.1-9.1 20.2-20.2 20.2H79c-11.1 0-20.2-9.1-20.2-20.2V199.9c0-11.1 9.1-20.2 20.2-20.2h248.7c11.1 0 20.2 9.1 20.2 20.2l-.1 49zm-44.2 37.3c0 9.3-7.5 16.8-16.8 16.8s-16.8-7.5-16.8-16.8 7.5-16.8 16.8-16.8 16.8 7.5 16.8 16.8z"/><path d="M133.7 200.9H95.5c-5 0-9 4.1-9 9s4.1 9 9 9h38.2c5 0 9-4 9-9 .1-5-4-9-9-9zM222.4 200.9h-38.2c-5 0-9 4.1-9 9s4 9 9 9h38.2c5 0 9-4 9-9s-4-9-9-9zM311.1 200.9h-38.2c-5 0-9 4.1-9 9s4.1 9 9 9h38.2c5 0 9-4 9-9s-4-9-9-9zM133.7 353.5H95.5c-5 0-9 4-9 9s4.1 9 9 9h38.2c5 0 9-4 9-9 .1-5-4-9-9-9zM222.4 353.5h-38.2c-5 0-9 4-9 9s4 9 9 9h38.2c5 0 9-4 9-9s-4-9-9-9zM272.8 371.5H311c5 0 9-4 9-9s-4.1-9-9-9h-38.2c-5 0-9 4-9 9s4 9 9 9zM286.7 129.2c31.2 0 56.5-25.3 56.5-56.5s-25.3-56.5-56.5-56.5-56.5 25.3-56.5 56.5 25.3 56.5 56.5 56.5zm-19.3-37.9c1.3-3.1 4.8-4.6 7.9-3.3 8.7 3.5 15.6 3.1 19.1 1.5 1.7-.8 2.8-1.9 3.2-3.3.8-2.4-1.5-4.6-8.3-8-1.5-.7-2.4-1.1-3.4-1.5-6.6-2.6-22-8.8-17.7-22.3 1.3-4.2 4.1-7.5 8-9.5 1.4-.7 3-1.2 4.5-1.6v-5.6c0-3.3 2.7-6 6-6s6 2.7 6 6v5.4c4.6.7 8.2 1.8 8.9 2.1 3.2 1.1 4.8 4.5 3.7 7.7-1.1 3.1-4.5 4.8-7.6 3.7-3.5-1.2-12.1-3-16.2-.9-1 .5-1.6 1.2-2 2.3-.9 2.8 7.2 6.1 10.7 7.4 1.4.6 2.5 1 3.4 1.4 5.5 2.7 19.8 9.6 15.4 23-1.5 4.6-4.9 8.2-9.7 10.4-2 .9-4.3 1.5-6.6 1.9v5.4c0 3.3-2.7 6-6 6s-6-2.7-6-6v-5.7c-3.3-.6-6.6-1.4-10-2.8-3.1-1.1-4.6-4.6-3.3-7.7zM179.9 143.6c-1.5-1.7-4.2-3.5-8.8-5.8-1.7-.8-2.7-1.2-3.9-1.7-7.2-2.9-24.2-9.7-19.6-24.3 1.4-4.6 4.4-8.1 8.7-10.3 1.8-.9 3.7-1.4 5.6-1.8v-7.1c0-3.3 2.7-6 6-6s6 2.7 6 6v6.8c5.5.7 9.8 2.1 10.7 2.4 3.2 1.1 4.8 4.5 3.7 7.7s-4.5 4.8-7.7 3.8c-4.8-1.7-14.3-3.4-19-1-1.4.7-2.2 1.6-2.6 3.1-1.1 3.5 5.4 6.6 12.6 9.5 1.5.6 2.9 1.2 3.8 1.6 5.3 2.6 15.8 7.8 17.6 17.1h37.9c.7-3.7 1.1-7.4 1.1-11.3 0-35.4-28.7-64.1-64.1-64.1s-64.1 28.7-64.1 64.1c0 3.9.5 7.6 1.1 11.3h75z"/></svg>