<svg version="1.1" id="Layer_1" xmlns="http://www.w3.org/2000/svg" x="0" y="0" viewBox="0 0 432 432" style="enable-background:new 0 0 432 432" xml:space="preserve"><path d="M358.1 92.7h-77.2v-3.5c0-15.5-12.6-28.1-28.1-28.1h-73.3c-15.5 0-28.1 12.6-28.1 28.1v3.5H73.9c-15.5 0-28.1 12.6-28.1 28v222.1c0 15.5 12.6 28.1 28.1 28.1h284.2c15.5 0 28-12.6 28-28.1V120.7c.1-15.5-12.6-28-28-28zM170 89.2c0-5.2 4.2-9.4 9.4-9.4h73.3c5.2 0 9.4 4.2 9.4 9.4v3.5H170v-3.5zm-96.1 22.2h284.2c5.2 0 9.4 4.2 9.4 9.4v48.9l-122.2 49.6v-2.1c0-15.5-12.6-28.1-28.1-28.1h-2.4c-15.5 0-28.1 12.6-28.1 28.1v2.1L64.6 169.6v-48.9c-.1-5.1 4.2-9.3 9.3-9.3zm152.6 105.7v38.7c0 5.2-4.2 9.4-9.4 9.4h-2.4c-5.2 0-9.4-4.2-9.4-9.4v-38.7c0-5.2 4.2-9.4 9.4-9.4h2.4c5.2 0 9.4 4.2 9.4 9.4zm131.6 135.1H73.9c-5.2 0-9.4-4.2-9.4-9.4V189.7l122.1 49.6v16.3c0 15.5 12.6 28.1 28.1 28.1h2.4c15.5 0 28.1-12.6 28.1-28.1v-16.3l122.2-49.6v153.1c.1 5.2-4.2 9.4-9.3 9.4z"/></svg>